# xmcd
#
# Track frame offsets: 
#        150
#        15377
#        34474
#        45656
#        59506
#        71462
#        87581
#        100406
#        112969
#        126627
#        140375
#        160050
#
# Disc length: 2307 seconds
#
# Revision: 0
# Processed by: cddbd v1.5.2PL0 Copyright (c) Steve Scherf et al.
# Submitted via: ExactAudioCopyFreeDBPlugin 1.0
#
DISCID=a809010c
DTITLE=Various Artist - Country and Western
DYEAR=1900
DGENRE=Country
TTITLE0=Alabama - Forty Hour Week (for a livin)
TTITLE1=Alabama - Mountain Music
TTITLE2=Emmylou Harris - Light of the stable
TTITLE3=George Jones - Golden Ring
TTITLE4=Patsy Cline - Sweet Dreams (of you)
TTITLE5=Loretta Lynn - Precious Memories
TTITLE6=Patsy Cline - I fall to pieces
TTITLE7=Patsy Cline - Crazy
TTITLE8=Patsy Cline - She's got you
TTITLE9=Emmylou Harris - Pledging my love
TTITLE10=The Mavericks - Dance the night away
TTITLE11=Don Williams - Lay down beside me
EXTD=
EXTT0=
EXTT1=
EXTT2=
EXTT3=
EXTT4=
EXTT5=
EXTT6=
EXTT7=
EXTT8=
EXTT9=
EXTT10=
EXTT11=
PLAYORDER=
